<svg width="35" height="35" viewBox="0 0 35 35" fill="none" xmlns="http://www.w3.org/2000/svg">
<g clip-path="url(#clip0)">
<path d="M34.5734 32.5117L25.8671 23.8055C28.2384 20.9052 29.4042 17.2046 29.1235 13.4689C28.8428 9.73317 27.137 6.24828 24.3589 3.73502C21.5808 1.22176 17.943 -0.127599 14.198 -0.0339448C10.4529 0.0597095 6.88711 1.58921 4.23813 4.23819C1.58915 6.88717 0.0596485 10.453 -0.0340059 14.198C-0.12766 17.9431 1.2217 21.5809 3.73496 24.3589C6.24822 27.137 9.73311 28.8428 13.4688 29.1236C17.2045 29.4043 20.9052 28.2384 23.8054 25.8672L32.5117 34.5734C32.7898 34.822 33.1526 34.9547 33.5256 34.9442C33.8985 34.9337 34.2533 34.7809 34.5171 34.5171C34.7809 34.2533 34.9337 33.8985 34.9442 33.5256C34.9546 33.1527 34.822 32.7899 34.5734 32.5117ZM14.5851 26.25C12.2765 26.2511 10.0194 25.5674 8.09936 24.2855C6.17935 23.0035 4.68269 21.1809 3.79871 19.0482C2.91473 16.9156 2.68316 14.5686 3.13329 12.3043C3.58342 10.0399 4.69502 7.95998 6.32747 6.32753C7.95992 4.69508 10.0399 3.58348 12.3042 3.13335C14.5685 2.68322 16.9155 2.9148 19.0482 3.79877C21.1809 4.68275 23.0035 6.17941 24.2854 8.09942C25.5674 10.0194 26.251 12.2765 26.2499 14.5852C26.2456 17.6775 25.0152 20.642 22.8286 22.8286C20.6419 25.0153 17.6775 26.2457 14.5851 26.25Z" fill="#212121"/>
</g>
<defs>
<clipPath id="clip0">
<rect width="35" height="35" fill="white"/>
</clipPath>
</defs>
</svg>
