<svg width="35" height="35" viewBox="0 0 35 35" fill="none" xmlns="http://www.w3.org/2000/svg">
<path d="M13.1253 32.0833C13.9307 32.0833 14.5837 31.4304 14.5837 30.625C14.5837 29.8196 13.9307 29.1667 13.1253 29.1667C12.3199 29.1667 11.667 29.8196 11.667 30.625C11.667 31.4304 12.3199 32.0833 13.1253 32.0833Z" stroke="#212121" stroke-width="2" stroke-linecap="round" stroke-linejoin="round"/>
<path d="M29.1663 32.0833C29.9718 32.0833 30.6247 31.4304 30.6247 30.625C30.6247 29.8196 29.9718 29.1667 29.1663 29.1667C28.3609 29.1667 27.708 29.8196 27.708 30.625C27.708 31.4304 28.3609 32.0833 29.1663 32.0833Z" stroke="#212121" stroke-width="2" stroke-linecap="round" stroke-linejoin="round"/>
<path d="M1.45801 1.45831H7.29134L11.1997 20.9854C11.333 21.6568 11.6983 22.2599 12.2315 22.6892C12.7647 23.1184 13.4319 23.3464 14.1163 23.3333H28.2913C28.9757 23.3464 29.6429 23.1184 30.1762 22.6892C30.7094 22.2599 31.0746 21.6568 31.208 20.9854L33.5413 8.74998H8.74967" stroke="#212121" stroke-width="2" stroke-linecap="round" stroke-linejoin="round"/>
</svg>
