<svg width="64" height="64" viewBox="0 0 64 64" fill="none" xmlns="http://www.w3.org/2000/svg">
<path d="M49.9303 17.33H41.8703V12C41.8703 11.6022 41.7123 11.2206 41.431 10.9393C41.1497 10.658 40.7681 10.5 40.3703 10.5H23.6303C23.2325 10.5 22.851 10.658 22.5697 10.9393C22.2883 11.2206 22.1303 11.6022 22.1303 12V17.33H14.0703C13.6725 17.33 13.291 17.488 13.0097 17.7693C12.7283 18.0506 12.5703 18.4322 12.5703 18.83C12.5703 19.2278 12.7283 19.6094 13.0097 19.8907C13.291 20.172 13.6725 20.33 14.0703 20.33H16.0003V48C16.003 49.4543 16.5825 50.8481 17.6118 51.8756C18.6411 52.903 20.036 53.48 21.4903 53.48H42.5903C44.0307 53.459 45.4052 52.8727 46.4172 51.8476C47.4293 50.8224 47.9978 49.4406 48.0003 48V20.33H49.8903C50.2881 20.3353 50.6718 20.1824 50.9568 19.9048C51.2419 19.6272 51.405 19.2478 51.4103 18.85C51.4156 18.4522 51.2627 18.0685 50.9851 17.7835C50.7076 17.4984 50.3281 17.3353 49.9303 17.33ZM25.1303 13.5H38.8703V17.33H25.1303V13.5ZM45.0003 48C44.9977 48.6587 44.7342 49.2894 44.2675 49.7542C43.8008 50.219 43.169 50.48 42.5103 50.48H21.4503C20.7986 50.4695 20.177 50.2039 19.7189 49.7403C19.2608 49.2766 19.0028 48.6518 19.0003 48V20.33H45.0003V48Z" fill="#212121"/>
<path d="M28 25.87C27.6022 25.87 27.2206 26.028 26.9393 26.3093C26.658 26.5906 26.5 26.9722 26.5 27.37V43.46C26.5 43.8578 26.658 44.2394 26.9393 44.5207C27.2206 44.802 27.6022 44.96 28 44.96C28.3978 44.96 28.7794 44.802 29.0607 44.5207C29.342 44.2394 29.5 43.8578 29.5 43.46V27.37C29.5 26.9722 29.342 26.5906 29.0607 26.3093C28.7794 26.028 28.3978 25.87 28 25.87Z" fill="#212121"/>
<path d="M36 25.87C35.6022 25.87 35.2206 26.028 34.9393 26.3093C34.658 26.5906 34.5 26.9722 34.5 27.37V43.46C34.5 43.8578 34.658 44.2394 34.9393 44.5207C35.2206 44.802 35.6022 44.96 36 44.96C36.3978 44.96 36.7794 44.802 37.0607 44.5207C37.342 44.2394 37.5 43.8578 37.5 43.46V27.37C37.5 26.9722 37.342 26.5906 37.0607 26.3093C36.7794 26.028 36.3978 25.87 36 25.87Z" fill="#212121"/>
</svg>
